<?xml version="1.0" standalone="no"?>
<!DOCTYPE svg PUBLIC "-//W3C//DTD SVG 20010904//EN"
 "http://www.w3.org/TR/2001/REC-SVG-20010904/DTD/svg10.dtd">
<svg version="1.0" xmlns="http://www.w3.org/2000/svg"
 width="2333.000000pt" height="2333.000000pt" viewBox="0 0 2333.000000 2333.000000"
 preserveAspectRatio="xMidYMid meet">
<metadata>
Created by potrace 1.11, written by Peter Selinger 2001-2013
</metadata>
<g transform="translate(0.000000,2333.000000) scale(0.100000,-0.100000)"
fill="#000000" stroke="none">
<path d="M11220 22501 c-151 -31 -288 -70 -296 -83 -3 -5 7 -6 23 -3 25 6 26
5 8 -6 -30 -18 -36 -33 -17 -41 15 -6 14 -7 -3 -7 -17 -1 -17 -3 -5 -11 13 -8
12 -10 -2 -10 -10 0 -18 -7 -18 -15 0 -8 8 -15 18 -16 14 0 14 -2 -3 -9 -19
-9 -19 -9 3 -16 21 -6 21 -7 5 -20 -13 -10 -14 -13 -4 -14 8 0 11 -3 8 -6 -3
-4 -2 -15 4 -25 8 -15 6 -19 -8 -19 -17 -1 -17 -1 0 -14 10 -8 14 -17 9 -20
-8 -4 -9 -49 -2 -66 4 -9 -2 -55 -8 -65 -3 -5 -6 -23 -7 -40 -1 -16 -8 -44
-18 -61 -9 -17 -13 -34 -10 -38 3 -3 -1 -14 -10 -23 -8 -10 -19 -30 -22 -46
-4 -15 -11 -30 -16 -33 -5 -3 -9 -11 -9 -19 0 -8 -13 -34 -30 -58 -16 -25 -30
-47 -30 -50 0 -9 -60 -96 -71 -102 -5 -4 -9 -16 -9 -29 0 -13 -11 -38 -25 -57
-14 -19 -49 -69 -78 -111 -29 -42 -106 -139 -172 -215 -66 -76 -145 -169 -176
-208 -31 -38 -64 -77 -73 -84 -10 -8 -64 -71 -121 -140 -57 -70 -120 -145
-142 -167 -21 -23 -53 -60 -71 -83 -18 -22 -39 -41 -47 -41 -8 0 -23 -17 -35
-37 -20 -35 -117 -123 -135 -123 -4 0 -15 -8 -24 -18 -35 -38 -132 -92 -165
-92 -15 0 -27 -7 -31 -19 -8 -25 -35 -36 -35 -15 0 10 -6 14 -15 10 -8 -3 -15
0 -15 6 0 8 -3 9 -11 1 -5 -5 -21 -8 -35 -5 -17 3 -24 11 -24 28 0 25 -15 33
-23 12 -4 -8 -9 -4 -13 10 -4 16 -9 20 -14 12 -8 -12 -15 30 -25 143 -3 37 -2
45 4 27 8 -22 9 -23 10 -4 1 11 -2 24 -6 27 -16 17 -8 128 17 219 15 54 23 95
18 92 -16 -10 -8 9 10 22 14 11 14 15 3 23 -9 6 -10 10 -2 16 9 5 9 11 -1 23
-8 9 -8 13 -2 9 12 -7 29 21 19 31 -3 3 -5 -1 -5 -8 0 -7 -2 -11 -5 -8 -9 8 6
38 16 32 5 -3 6 3 2 12 -3 10 -2 15 3 12 5 -4 10 13 12 35 4 68 6 76 16 70 5
-4 7 0 4 8 -3 8 0 26 8 40 16 29 17 39 3 39 -5 0 -8 -4 -5 -8 3 -5 -1 -9 -9
-9 -12 0 -10 7 5 32 27 44 25 64 -3 34 -13 -13 -22 -27 -20 -31 2 -5 0 -8 -5
-8 -13 0 -101 -167 -170 -322 -138 -308 -234 -651 -276 -983 -51 -402 -47
-771 19 -1955 52 -939 39 -1388 -54 -1815 -30 -137 -137 -513 -151 -530 -5 -5
-27 -62 -50 -125 -116 -315 -393 -880 -675 -1380 -24 -41 -116 -205 -206 -365
-152 -271 -254 -448 -936 -1615 -437 -749 -546 -946 -676 -1222 -331 -699
-544 -1335 -628 -1870 -30 -190 -37 -556 -15 -778 24 -247 35 -342 38 -346 2
-2 42 12 88 31 105 42 196 58 308 53 78 -3 96 -7 177 -46 65 -31 85 -46 75
-52 -8 -5 -18 -6 -22 -4 -4 3 -8 -2 -8 -10 0 -21 21 -66 31 -66 24 0 221 -195
359 -356 117 -136 123 -143 218 -269 116 -152 156 -209 248 -347 49 -73 92
-134 96 -136 5 -2 8 -10 8 -17 0 -7 4 -15 8 -17 7 -3 69 -99 219 -338 72 -115
95 -153 150 -250 20 -36 64 -112 98 -170 58 -99 89 -154 165 -295 18 -33 36
-64 40 -70 4 -5 22 -37 40 -70 68 -126 82 -150 90 -160 5 -6 30 -51 55 -100
61 -119 92 -176 142 -260 22 -38 44 -80 48 -93 4 -12 11 -19 17 -16 7 4 8 2 4
-4 -3 -6 14 -43 40 -83 25 -39 47 -79 49 -88 2 -9 19 -43 39 -76 20 -33 32
-61 27 -63 -6 -2 1 -15 14 -28 23 -23 27 -31 24 -50 0 -4 3 -10 9 -13 5 -3 22
-28 37 -56 22 -37 24 -46 10 -35 -17 14 -18 14 -6 -7 6 -13 16 -23 21 -23 5 0
7 -6 4 -13 -2 -7 7 -24 20 -36 14 -13 23 -28 20 -32 -3 -5 -1 -9 5 -9 6 0 7
-7 4 -17 -5 -12 -3 -14 7 -8 8 5 11 4 7 -2 -6 -10 38 -121 52 -133 3 -3 6 -9
6 -15 0 -5 32 -73 70 -150 38 -77 68 -143 67 -147 -1 -5 3 -8 10 -8 6 0 8 -3
5 -6 -3 -4 5 -25 18 -48 13 -22 24 -44 24 -49 1 -13 73 -152 83 -158 5 -3 6
-14 2 -24 -5 -13 -4 -16 4 -11 8 5 10 2 6 -8 -3 -9 -1 -16 6 -16 6 0 9 -4 5
-9 -3 -5 -1 -12 5 -16 6 -4 8 -11 5 -16 -4 -5 -2 -9 2 -9 9 0 64 -139 83 -210
7 -25 15 -52 18 -60 3 -8 6 -17 7 -20 0 -3 7 -29 14 -57 8 -33 18 -53 27 -53
8 0 14 -5 14 -11 0 -5 -4 -7 -10 -4 -5 3 -10 1 -10 -4 0 -6 4 -11 10 -11 5 0
7 -22 4 -53 -3 -28 -2 -47 3 -40 12 17 9 -399 -4 -497 -13 -95 -20 -120 -36
-120 -6 0 -8 -3 -4 -6 3 -4 -7 -33 -23 -65 -17 -32 -30 -66 -30 -74 0 -10 -5
-13 -12 -9 -8 5 -9 2 -5 -9 4 -10 2 -17 -4 -17 -6 0 -8 -7 -5 -16 3 -8 2 -12
-4 -9 -6 3 -10 1 -10 -5 0 -6 -26 -48 -57 -93 -32 -45 -57 -83 -55 -84 1 -2 1
-2 -1 0 -2 1 -30 -22 -63 -51 -32 -30 -85 -67 -116 -83 -31 -16 -59 -33 -63
-38 -3 -6 -12 -8 -19 -5 -7 3 -20 -2 -29 -10 -9 -9 -20 -16 -26 -16 -6 0 -11
-4 -11 -10 0 -5 -9 -10 -20 -10 -11 0 -23 -7 -26 -15 -4 -8 -10 -13 -14 -10
-4 3 -24 -2 -44 -10 -42 -18 -49 -19 -41 -5 9 14 -1 12 -36 -6 -17 -8 -37 -13
-45 -10 -8 3 -14 2 -14 -3 0 -4 -7 -8 -15 -9 -14 -2 -23 -2 -73 -1 -13 1 -31
-6 -41 -15 -10 -9 -35 -16 -56 -16 -34 0 -36 1 -24 18 13 16 12 16 -4 3 -25
-20 -219 -18 -437 4 -130 13 -153 17 -139 26 20 12 5 11 -25 -2 -27 -13 -89
-3 -67 10 7 4 -30 11 -82 14 -97 6 -130 14 -122 27 7 11 -98 30 -142 24 -28
-3 -33 -2 -18 5 18 7 16 9 -15 16 -20 3 -40 6 -45 5 -6 -2 -21 -2 -35 -1 -20
1 -22 3 -10 12 12 8 10 9 -8 4 -13 -4 -42 -3 -65 1 -37 7 -39 8 -17 14 22 6
20 8 -17 14 -24 4 -45 12 -48 16 -3 5 -26 12 -50 16 -25 3 -45 10 -45 13 0 4
-6 8 -12 8 -32 2 -98 14 -148 28 -30 8 -67 15 -82 15 -16 0 -28 5 -28 11 0 7
-11 8 -30 4 -17 -4 -30 -2 -30 3 0 5 -12 9 -27 9 -16 1 -35 3 -43 5 -61 18
-107 30 -129 33 -14 2 -26 4 -26 5 0 1 -8 3 -17 6 -10 2 -24 6 -30 7 -7 2 -30
7 -50 11 -21 5 -36 11 -34 15 2 3 -14 7 -36 8 -23 0 -44 7 -48 13 -4 7 -13 9
-19 6 -6 -4 -11 -2 -11 5 0 7 -11 10 -29 7 -18 -3 -27 0 -24 5 4 6 -5 8 -20 5
-16 -3 -24 -1 -20 5 4 6 -5 8 -26 4 -21 -4 -30 -3 -26 4 4 6 -3 7 -21 3 -21
-5 -25 -4 -19 6 6 10 0 11 -30 6 -28 -6 -35 -4 -29 5 5 8 0 10 -19 7 -16 -3
-24 -1 -20 5 3 6 -6 8 -25 5 -17 -2 -29 -1 -26 4 3 5 -6 6 -20 2 -16 -4 -26
-2 -26 5 0 6 -7 8 -15 5 -8 -4 -21 -2 -28 4 -6 5 -37 12 -67 16 -30 4 -68 11
-85 16 -16 5 -52 12 -80 14 -27 3 -52 6 -55 7 -3 1 -8 1 -11 1 -7 -1 -96 13
-144 24 -16 3 -37 7 -45 9 -8 2 -41 6 -73 10 -31 4 -60 12 -63 16 -3 5 -9 7
-14 4 -4 -3 -40 2 -80 10 -71 15 -99 19 -200 31 -30 4 -59 10 -65 14 -5 4 -37
11 -70 15 -33 4 -69 9 -80 11 -11 2 -35 5 -53 8 -18 3 -59 10 -90 16 -71 14
-88 17 -182 35 -41 8 -104 21 -140 29 -36 9 -81 16 -101 16 -19 0 -39 4 -45 9
-5 5 -25 12 -45 15 -20 3 -48 10 -63 15 -14 6 -26 9 -26 6 0 -2 -18 2 -40 10
-23 8 -38 10 -35 5 9 -14 -26 0 -49 19 -22 19 -19 19 -41 1 -11 -9 -16 -10
-11 -2 6 10 -5 15 -30 11 -3 0 -15 6 -27 14 -12 7 -32 16 -45 20 -19 4 -22 2
-20 -16 5 -33 67 -87 100 -87 7 0 28 -13 47 -29 22 -19 65 -38 125 -55 270
-76 693 -173 1416 -326 707 -149 861 -196 1730 -520 915 -342 1136 -399 1508
-387 215 7 304 26 447 97 123 61 191 112 393 293 220 198 273 243 388 330 174
133 232 209 268 352 17 66 36 255 36 352 l0 62 35 -15 c150 -62 526 -172 745
-218 771 -159 1468 -149 2480 33 410 75 952 209 1333 331 l95 30 11 83 c22
153 62 351 136 667 156 668 172 785 200 1460 8 201 17 402 20 448 3 45 4 82 2
82 -2 0 -26 -28 -53 -62 -154 -197 -474 -524 -709 -727 -66 -56 -197 -161
-292 -232 -168 -127 -173 -130 -230 -134 -87 -6 -200 -33 -558 -130 -562 -153
-1002 -227 -1442 -242 -157 -5 -173 -4 -173 10 0 14 -11 17 -65 17 -58 0 -65
2 -65 20 0 16 -7 20 -35 20 -33 0 -35 2 -35 35 0 33 -2 35 -35 35 -24 0 -35 5
-35 15 0 9 -9 15 -25 15 -16 0 -25 6 -25 15 0 9 -9 15 -25 15 -16 0 -25 6 -25
15 0 8 -9 15 -20 15 -11 0 -20 7 -20 15 0 8 -9 15 -20 15 -11 0 -20 5 -20 11
0 15 -61 69 -77 69 -7 0 -13 7 -13 15 0 8 -5 15 -11 15 -14 0 -39 25 -39 39 0
6 -7 11 -15 11 -8 0 -15 5 -15 10 0 6 -6 10 -14 10 -8 0 -19 13 -24 29 -10 30
-56 81 -72 81 -6 0 -10 5 -10 10 0 12 -108 120 -120 120 -5 0 -10 4 -12 9 -9
26 -270 301 -285 301 -3 0 -17 13 -31 29 -75 81 -124 130 -165 164 -25 21 -62
54 -83 73 -22 20 -66 62 -100 93 -33 31 -82 74 -108 96 -26 22 -58 50 -71 61
-13 12 -51 43 -84 68 -34 26 -61 51 -61 55 0 5 -21 24 -46 42 -136 101 -250
203 -549 494 -182 176 -528 512 -770 746 -741 718 -966 957 -1118 1185 -61 93
-77 132 -94 229 -73 424 -82 859 -27 1260 61 440 217 947 428 1390 171 357
448 826 882 1491 415 637 625 1018 850 1542 218 506 331 871 404 1301 26 151
80 582 80 634 0 33 -10 49 -75 125 -252 290 -341 550 -275 806 42 164 100 236
350 435 85 68 157 125 159 127 2 2 -20 29 -48 60 -95 104 -175 237 -256 429
-163 382 -211 735 -146 1053 47 224 120 344 273 443 159 102 342 105 530 7
120 -62 210 -152 285 -284 165 -292 200 -407 233 -760 11 -123 2 -249 -25
-359 -9 -36 -15 -69 -12 -71 3 -3 40 6 83 20 121 39 241 66 324 73 123 10 312
-17 554 -78 65 -17 120 -28 123 -25 2 2 0 62 -6 133 -18 205 17 566 71 743 51
166 197 413 329 554 124 133 230 196 459 272 115 39 116 39 275 38 145 0 167
-2 237 -26 42 -14 84 -32 92 -41 9 -8 19 -17 23 -19 16 -6 132 -146 127 -151
-3 -3 4 -10 15 -17 12 -6 21 -17 21 -25 0 -8 4 -15 10 -15 5 0 17 -16 26 -35
9 -19 20 -35 25 -35 5 0 9 -7 9 -15 0 -8 5 -15 10 -15 6 0 10 -7 10 -15 0 -8
4 -15 9 -15 5 0 15 -16 21 -35 6 -19 16 -35 21 -35 6 0 7 -4 4 -10 -3 -5 -1
-10 5 -10 6 0 8 -4 5 -10 -3 -5 -1 -10 5 -10 6 0 8 -4 5 -10 -3 -5 -1 -10 6
-10 7 0 10 -3 6 -6 -3 -4 0 -19 9 -35 8 -16 15 -32 15 -36 0 -5 7 -18 15 -30
8 -13 12 -23 8 -23 -4 0 -1 -7 6 -15 7 -8 9 -15 5 -15 -4 0 -2 -7 5 -15 6 -8
9 -19 6 -24 -4 -5 -2 -12 4 -16 6 -4 8 -11 5 -16 -4 -5 -3 -14 1 -21 4 -7 9
-21 10 -32 2 -12 6 -41 10 -66 8 -56 8 -187 -1 -260 -6 -53 -9 -71 -20 -135
-3 -16 -7 -39 -9 -50 -2 -11 -5 -22 -6 -25 -2 -3 -4 -9 -5 -15 -1 -5 -5 -17
-8 -25 -4 -8 -9 -26 -11 -40 -3 -14 -5 -25 -6 -25 -1 0 -3 -7 -5 -15 -22 -103
-182 -434 -217 -448 -4 -2 -8 -7 -8 -12 0 -11 -116 -130 -127 -130 -4 0 -21
-13 -36 -29 -16 -16 -48 -41 -72 -57 -25 -15 -43 -30 -40 -32 2 -2 77 -35 167
-74 164 -70 190 -84 166 -86 -64 -5 -95 -23 -111 -62 -4 -11 -6 -9 -6 5 -1 17
-4 15 -16 -9 -8 -15 -15 -37 -15 -47 0 -10 -5 -21 -10 -24 -6 -4 -8 -10 -5
-15 3 -5 1 -11 -4 -15 -6 -3 -7 -13 -4 -22 4 -11 3 -14 -5 -9 -8 5 -12 -1 -12
-17 0 -37 -30 -128 -49 -148 -10 -11 -24 -32 -32 -47 -41 -80 -204 -263 -309
-347 -36 -28 -85 -71 -110 -94 -82 -77 -241 -171 -314 -185 -11 -3 -41 -12
-66 -21 -25 -9 -110 -34 -190 -55 -232 -61 -298 -79 -394 -110 -50 -16 -118
-36 -151 -45 -33 -9 -91 -25 -130 -36 -169 -47 -355 -90 -473 -110 -70 -11
-131 -24 -137 -27 -5 -4 -41 -12 -80 -19 -56 -10 -84 -9 -150 2 -198 35 -416
106 -625 205 -139 66 -203 78 -115 22 158 -101 410 -208 616 -261 60 -15 106
-31 102 -34 -3 -4 6 -7 22 -7 23 0 26 -2 15 -15 -7 -8 -10 -21 -7 -29 4 -11
-3 -13 -29 -11 -18 2 -36 -1 -39 -6 -4 -5 -1 -9 6 -9 7 0 10 -3 7 -6 -4 -3
-16 -1 -27 5 -17 10 -20 9 -14 -5 5 -14 3 -15 -12 -6 -22 12 -69 -13 -58 -31
4 -6 -2 -8 -14 -5 -26 7 -57 -24 -40 -41 8 -8 8 -11 -1 -11 -10 0 -10 -3 0
-14 7 -8 16 -12 21 -9 4 2 7 -1 7 -6 0 -13 33 -53 84 -100 21 -20 49 -46 62
-58 13 -13 27 -23 32 -23 4 0 17 -8 28 -17 64 -59 252 -168 331 -193 21 -7 43
-16 48 -20 6 -5 61 -18 124 -30 98 -19 136 -22 255 -18 96 4 130 3 106 -4 -19
-5 -125 -12 -235 -16 l-200 -7 70 -34 c39 -18 86 -39 105 -46 19 -7 65 -26
102 -43 116 -54 285 -114 373 -132 28 -6 68 -15 90 -20 36 -8 139 -27 190 -35
80 -13 119 -16 180 -15 101 2 106 2 150 1 22 -1 67 1 100 4 33 3 89 7 125 10
72 4 174 20 191 31 6 4 42 10 80 14 48 5 93 19 144 44 40 20 80 36 87 36 8 0
22 6 33 14 11 7 31 17 44 21 14 4 46 22 71 40 25 18 56 35 67 39 12 4 24 13
27 21 3 8 12 15 20 15 7 0 36 21 62 46 27 25 61 52 77 60 15 8 27 19 27 24 0
10 13 27 67 89 18 20 33 42 33 49 0 6 4 12 8 12 5 0 17 16 27 34 l19 35 67
-202 c76 -228 219 -588 334 -842 176 -388 329 -690 933 -1840 379 -723 525
-1008 621 -1220 261 -572 416 -1101 495 -1687 40 -290 49 -463 43 -778 -8
-421 -48 -711 -153 -1110 -3 -14 10 1 30 33 119 193 281 336 513 451 134 67
227 100 333 120 162 31 189 9 55 -45 -88 -36 -272 -135 -340 -184 -214 -154
-330 -296 -495 -605 -45 -85 -98 -182 -118 -215 -34 -56 -37 -58 -44 -35 -5
17 -6 12 -2 -14 18 -129 193 -538 281 -659 41 -56 142 -139 226 -186 31 -18
70 -49 85 -69 15 -20 47 -54 71 -77 24 -22 61 -59 83 -82 22 -23 59 -54 82
-69 22 -16 53 -39 68 -52 28 -25 54 -42 101 -65 15 -7 25 -16 21 -19 -3 -3 22
-21 55 -38 34 -18 61 -37 61 -42 0 -5 6 -8 13 -5 6 2 31 -6 54 -19 24 -12 57
-25 73 -29 17 -4 28 -10 25 -15 -2 -4 7 -8 21 -8 13 0 33 -7 43 -16 10 -9 20
-13 24 -10 3 3 16 -1 29 -10 12 -9 34 -16 49 -16 14 0 54 -9 89 -20 35 -11 75
-18 92 -15 17 3 27 2 24 -4 -8 -13 19 -22 31 -10 6 6 19 6 36 0 15 -6 27 -7
27 -2 0 5 17 5 38 -1 20 -5 53 -8 72 -7 19 1 45 2 58 2 12 -1 22 3 22 7 0 10
88 22 172 23 37 1 61 5 55 9 -8 5 -7 8 3 11 86 26 109 31 137 28 23 -2 32 2
36 16 4 16 5 16 6 1 0 -10 3 -18 6 -18 12 0 75 35 75 42 0 4 10 8 22 8 12 0
18 3 15 6 -4 4 24 22 62 41 38 19 82 47 99 63 23 21 32 24 36 14 4 -11 11 -11
40 4 18 9 32 20 29 24 -2 5 5 8 17 8 12 0 18 4 15 10 -3 5 1 10 9 10 9 0 16 7
16 16 0 8 4 13 9 10 9 -6 26 22 22 38 -1 5 5 4 13 -3 9 -7 22 -11 30 -8 7 3
19 0 25 -6 10 -9 12 -9 9 2 -2 7 3 16 10 18 8 3 10 -1 5 -14 -6 -16 -5 -16 11
-4 9 8 15 19 13 25 -3 6 2 17 9 24 9 8 14 9 14 2 0 -6 5 -8 10 -5 6 3 10 15
10 27 0 14 5 18 16 14 10 -4 22 1 30 11 13 17 13 17 14 1 0 -23 16 -23 30 0 8
12 10 12 7 2 -3 -9 5 -20 19 -27 19 -9 26 -7 40 8 19 21 39 15 29 -8 -4 -13
-3 -14 10 -3 9 7 18 10 22 7 3 -4 12 -2 20 4 12 11 18 1 14 -24 -1 -4 7 -11
16 -14 10 -4 24 -14 31 -22 10 -14 11 -13 6 4 -6 16 -5 18 7 8 19 -19 49 -16
50 5 0 14 2 14 9 -3 5 -11 9 -15 9 -10 1 6 5 5 9 -2 4 -6 16 -13 27 -15 18 -3
20 3 23 49 2 29 7 53 13 53 5 0 9 -5 9 -11 0 -5 6 -7 13 -3 9 5 9 4 1 -5 -9
-9 -9 -19 0 -37 11 -24 26 -32 26 -14 0 6 5 10 10 10 6 0 10 -7 10 -15 0 -27
32 -91 37 -76 4 8 13 -4 25 -30 23 -50 88 -149 98 -149 4 0 20 -19 36 -42 50
-73 342 -395 657 -722 37 -38 67 -73 67 -77 0 -4 19 -26 43 -51 23 -24 51 -55
61 -70 11 -15 23 -25 27 -22 4 2 14 -12 23 -31 9 -19 21 -35 26 -35 6 0 10 -6
10 -14 0 -8 7 -17 15 -20 12 -4 13 -10 6 -25 -6 -10 -7 -22 -3 -26 4 -3 0 -5
-8 -3 -8 2 -17 5 -20 8 -15 15 -50 29 -50 20 0 -5 -4 -10 -10 -10 -5 0 -10 7
-10 15 0 8 -4 15 -10 15 -5 0 -10 -4 -10 -9 0 -14 -37 -20 -49 -8 -8 8 -11 7
-11 -2 0 -11 -3 -11 -15 -1 -12 10 -15 10 -15 -1 0 -11 -3 -11 -11 1 -8 12 -9
11 -5 -5 6 -20 -5 -48 -18 -45 -10 1 -38 -16 -37 -23 3 -21 0 -28 -9 -22 -5 3
-10 -3 -10 -15 0 -13 -4 -19 -11 -14 -9 5 -10 -6 -5 -40 5 -34 4 -46 -5 -44
-6 2 -18 -16 -26 -40 -8 -23 -18 -40 -23 -37 -7 4 -23 -31 -21 -47 0 -3 -6
-12 -14 -18 -8 -7 -15 -21 -15 -30 0 -10 -13 -31 -30 -47 -16 -15 -30 -34 -30
-41 0 -7 -4 -11 -8 -8 -4 2 -18 -15 -31 -40 -22 -41 -32 -49 -56 -44 -5 1 -7
-2 -3 -6 9 -8 -82 -105 -93 -98 -4 2 -9 -6 -13 -19 -3 -12 -20 -36 -37 -52
-21 -20 -30 -24 -26 -13 5 15 4 16 -13 6 -10 -7 -17 -15 -15 -18 2 -3 -5 -12
-17 -19 -16 -10 -19 -10 -12 1 4 7 -16 -12 -46 -42 -30 -30 -50 -49 -45 -41 5
9 -2 7 -17 -5 -14 -10 -23 -23 -20 -29 3 -5 2 -7 -3 -3 -5 5 -23 -3 -40 -17
-18 -13 -35 -22 -39 -20 -3 3 -4 2 -2 -1 5 -7 -101 -104 -114 -104 -5 0 -23
-15 -41 -33 -18 -17 -26 -23 -18 -13 12 17 12 19 -1 11 -42 -24 -69 -47 -67
-58 1 -6 -5 -11 -13 -12 -9 0 -36 -17 -61 -37 -25 -21 -51 -38 -56 -38 -5 0
-17 -8 -26 -17 -14 -17 -17 -23 -17 -39 0 -4 -8 0 -17 7 -9 8 -14 9 -10 3 3
-6 -8 -21 -26 -34 -26 -20 -29 -20 -17 -4 13 18 -32 -19 -73 -59 -10 -9 -22
-15 -26 -12 -5 2 -15 -3 -22 -13 -13 -15 -12 -16 4 -3 9 7 17 11 17 8 0 -2
-21 -22 -47 -43 -27 -21 -42 -31 -35 -22 10 13 10 17 -2 21 -8 3 -20 -2 -28
-11 -11 -13 -11 -15 2 -8 8 4 6 1 -4 -8 -10 -8 -22 -14 -25 -12 -4 3 -22 -9
-41 -26 -19 -16 -28 -26 -20 -22 8 4 25 16 38 27 12 11 22 18 22 15 0 -4 -35
-35 -77 -70 -94 -77 -153 -122 -153 -116 0 3 34 31 75 63 42 32 74 60 71 62
-3 3 -11 0 -18 -6 -23 -20 -425 -316 -449 -331 -12 -8 -36 -28 -52 -45 -16
-16 -26 -23 -22 -15 5 8 -3 3 -18 -12 -24 -25 -38 -32 -59 -29 -4 0 -5 -5 -2
-13 3 -8 0 -17 -7 -22 -8 -5 -10 -3 -5 7 4 8 1 6 -7 -3 -8 -10 -20 -18 -26
-18 -7 0 -10 -4 -7 -9 3 -5 -18 -24 -47 -42 -28 -18 -56 -39 -60 -46 -5 -8
-13 -11 -18 -7 -5 3 -8 1 -7 -4 4 -12 -140 -121 -169 -128 -13 -4 -23 -10 -23
-16 0 -5 -4 -6 -10 -3 -5 3 -10 1 -10 -6 0 -7 -3 -10 -6 -7 -3 3 -19 -7 -37
-23 -17 -16 -35 -29 -39 -29 -4 0 -22 -9 -40 -20 l-33 -21 30 6 c24 4 22 2
-10 -10 -42 -17 -76 -41 -40 -30 l20 7 -20 -13 c-11 -7 -23 -18 -28 -25 -4 -7
-23 -18 -42 -24 -19 -6 -35 -16 -35 -20 0 -5 -7 -6 -17 -3 -10 4 -14 2 -10 -4
7 -11 -36 -53 -55 -53 -6 0 -8 -3 -5 -6 4 -4 -36 -35 -87 -69 -52 -35 -105
-73 -118 -85 -13 -12 -38 -28 -56 -37 -19 -9 -40 -27 -49 -39 -8 -13 -19 -24
-25 -24 -5 0 -18 -9 -30 -20 -12 -11 -28 -20 -35 -20 -7 0 -13 -4 -13 -8 0 -5
-12 -14 -26 -20 -14 -7 -22 -17 -19 -22 3 -5 0 -7 -8 -4 -8 3 -21 -3 -29 -13
-7 -10 -38 -31 -68 -47 -30 -16 -60 -35 -67 -43 -6 -8 -17 -16 -25 -17 -24 -5
-53 -20 -70 -36 -9 -8 -51 -33 -92 -54 -42 -21 -76 -42 -76 -47 0 -5 -8 -9
-18 -9 -10 0 -22 -3 -26 -7 -3 -4 -16 -8 -28 -10 -12 -2 -25 -8 -29 -15 -4 -6
-13 -7 -20 -3 -8 5 -11 4 -7 0 9 -9 -63 -56 -74 -49 -5 3 -8 1 -8 -5 0 -6 -6
-8 -13 -5 -7 2 -24 0 -38 -5 -18 -7 -20 -10 -6 -10 10 -1 15 -6 12 -12 -4 -6
-14 -8 -22 -5 -8 3 -12 2 -9 -3 7 -11 -28 -21 -72 -21 -20 0 -31 -4 -27 -10 3
-5 -2 -10 -12 -10 -15 0 -16 -2 -3 -10 12 -7 8 -12 -18 -21 -22 -8 -30 -14
-22 -19 8 -5 1 -10 -19 -15 -17 -4 -29 -10 -26 -15 3 -5 0 -12 -5 -15 -7 -5
-5 -12 7 -22 10 -8 13 -12 7 -9 -7 3 -15 -1 -18 -10 -4 -10 -13 -13 -27 -9
-12 4 -19 3 -16 -2 6 -9 -8 -11 -183 -14 -116 -3 -275 6 -324 18 -11 2 -30 5
-41 7 -11 1 -33 6 -50 12 -16 6 -55 19 -85 29 -30 10 -79 29 -109 43 -48 22
-66 34 -115 77 -54 47 -51 46 -63 25 -24 -37 134 -170 296 -250 242 -121 714
-187 1059 -149 220 24 433 86 618 179 132 67 201 116 429 304 422 350 849 691
1135 907 293 221 486 355 1155 804 601 403 817 552 991 681 277 206 363 334
352 524 -6 96 -50 197 -124 281 -27 31 -179 177 -339 325 -430 399 -570 543
-699 718 -198 267 -267 463 -331 946 -16 115 -43 200 -66 200 -4 0 -9 11 -13
23 -5 22 -9 23 -52 17 -25 -4 -51 -13 -56 -21 -8 -11 -9 -11 -5 3 3 9 -1 19
-9 22 -8 3 -14 12 -14 21 0 8 -3 14 -7 14 -25 -4 -43 19 -69 86 -16 44 -12 81
9 68 6 -4 7 -1 2 7 -4 7 -8 27 -9 44 -1 17 -6 38 -11 47 -13 21 -114 55 -235
81 -52 10 -96 21 -98 22 -1 2 2 16 9 32 6 16 14 72 19 124 6 81 14 109 50 190
37 82 44 109 52 200 9 101 32 291 83 690 33 254 52 475 70 812 8 158 19 309
25 336 11 58 -13 176 -81 400 -186 616 -440 1108 -1242 2407 -390 632 -404
654 -652 1025 -212 318 -314 463 -751 1070 -302 419 -479 693 -723 1123 -387
681 -510 1031 -576 1627 -33 304 -37 509 -31 1330 7 848 2 1067 -34 1345 -141
1100 -678 1896 -1589 2357 -477 241 -1019 349 -1736 347 -178 0 -215 -3 -335
-28z m-1844 -2625 c15 -8 32 -12 37 -9 6 3 7 1 3 -5 -6 -11 12 -17 37 -13 4 0
7 -3 7 -8 0 -5 10 -7 22 -3 14 3 19 2 14 -6 -4 -7 -2 -12 3 -12 6 0 11 -8 11
-18 0 -10 5 -23 11 -29 16 -16 -16 -55 -78 -95 -29 -18 -53 -37 -53 -41 0 -5
-4 -6 -9 -2 -5 3 -13 1 -16 -5 -4 -6 -24 -21 -44 -35 -21 -13 -44 -30 -52 -37
-20 -20 -76 -30 -83 -15 -2 7 -5 3 -6 -8 l-1 -20 -9 20 c-7 17 -9 17 -9 3 -1
-10 -5 -18 -10 -18 -5 0 -7 9 -4 20 3 10 -2 26 -11 35 -17 18 -21 35 -7 35 4
0 6 12 3 26 -3 18 -1 25 6 20 7 -4 10 4 10 23 -1 16 9 42 21 59 11 17 21 35
21 41 0 6 7 11 16 11 8 0 12 5 9 10 -3 6 1 10 10 10 9 0 14 4 11 9 -6 8 9 18
28 19 5 0 12 6 17 13 4 7 18 13 30 14 13 1 25 7 27 13 5 15 4 15 38 -2z m4787
-4209 c50 -76 84 -167 162 -427 9 -32 15 -79 13 -115 -3 -54 -6 -61 -32 -75
-22 -12 -30 -12 -33 -2 -3 6 -11 12 -18 12 -27 0 -115 103 -165 192 -77 139
-102 216 -106 330 -4 91 -3 98 21 127 48 56 103 41 158 -42z m-2780 -754 c-7
-2 -19 -2 -25 0 -7 3 -2 5 12 5 14 0 19 -2 13 -5z m4703 -4016 c70 -51 129
-119 211 -242 179 -266 284 -580 283 -848 -1 -105 -23 -229 -48 -269 l-20 -32
-30 32 c-29 31 -81 144 -204 442 -33 80 -75 177 -93 216 -200 426 -273 653
-235 725 19 34 70 25 136 -24z m-9566 -1599 c0 22 25 7 42 -26 20 -40 44 -145
53 -232 28 -288 74 -571 128 -785 11 -44 23 -96 27 -115 5 -19 20 -78 34 -130
44 -166 47 -260 6 -260 -10 0 -39 13 -63 30 -213 143 -373 478 -402 840 -15
189 35 504 98 610 29 50 60 80 69 66 5 -8 8 -7 8 2z m238 -1034 c-3 -14 -5
-12 -10 9 -3 19 -2 25 4 19 6 -6 8 -18 6 -28z m20 -79 c0 -16 -2 -15 -8 5 -11
34 -11 60 0 35 5 -11 8 -29 8 -40z m12339 -2327 c-3 -8 -6 -5 -6 6 -1 11 2 17
5 13 3 -3 4 -12 1 -19z m-10090 -3110 c-3 -8 -6 -5 -6 6 -1 11 2 17 5 13 3 -3
4 -12 1 -19z m20 -230 c-2 -13 -4 -5 -4 17 -1 22 1 32 4 23 2 -10 2 -28 0 -40z
m5744 -1336 c8 -21 7 -22 -14 -11 -15 9 -18 14 -8 17 11 4 11 6 0 14 -12 8
-12 9 0 6 8 -2 18 -14 22 -26z"/>
<path d="M12355 18716 c-23 -7 -49 -17 -59 -23 -16 -9 -14 -11 13 -16 41 -9
49 -32 22 -68 l-22 -29 23 0 c70 -1 61 -41 -22 -103 -95 -71 -186 -163 -237
-239 -40 -62 -47 -68 -78 -68 -32 0 -37 -5 -75 -71 -43 -73 -65 -92 -82 -68
-9 14 -5 117 7 154 6 18 6 18 -5 2 -6 -10 -23 -61 -37 -115 -23 -86 -26 -117
-27 -269 0 -94 2 -175 6 -178 9 -9 705 -255 722 -255 35 0 157 167 221 304
115 243 158 593 96 771 -71 202 -287 327 -466 271z m90 -888 c46 -21 47 -78 3
-111 l-28 -21 -27 21 c-53 39 -41 101 24 122 1 1 14 -4 28 -11z"/>
<path d="M9679 18661 c-67 -26 -105 -58 -148 -125 -95 -147 -114 -345 -55
-572 51 -197 208 -444 340 -535 l44 -30 118 79 c65 43 146 94 180 112 35 18
67 41 72 49 4 9 14 77 20 152 15 172 1 325 -40 450 -67 203 -195 373 -313 417
-71 27 -155 28 -218 3z m59 -113 c25 -25 14 -86 -28 -155 -37 -62 -51 -106
-65 -215 -12 -92 -58 -97 -92 -11 -27 71 -24 192 6 259 41 93 140 161 179 122z
m339 -680 c44 -41 18 -108 -42 -108 -58 0 -86 69 -45 110 26 26 58 25 87 -2z"/>
<path d="M11125 17582 c-45 -11 -45 -43 -1 -79 41 -32 224 -113 274 -120 48
-8 65 12 59 64 -6 57 -47 109 -95 123 -48 13 -198 21 -237 12z"/>
<path d="M10423 17539 c-61 -30 -94 -107 -54 -128 16 -9 26 1 74 69 62 87 58
98 -20 59z"/>
<path d="M15702 7085 c0 -16 2 -22 5 -12 2 9 2 23 0 30 -3 6 -5 -1 -5 -18z"/>
<path d="M19036 5828 c3 -5 10 -6 15 -3 13 9 11 12 -6 12 -8 0 -12 -4 -9 -9z"/>
<path d="M14718 5670 c-5 -47 -7 -146 -6 -220 l1 -135 9 185 c9 207 7 300 -4
170z"/>
<path d="M18365 5700 c-15 -17 -16 -20 -3 -20 9 0 18 9 21 20 3 11 4 20 3 20
-2 0 -11 -9 -21 -20z"/>
<path d="M17770 5490 c-13 -8 -12 -10 3 -10 9 0 17 5 17 10 0 12 -1 12 -20 0z"/>
<path d="M18699 3083 c-13 -16 -12 -17 4 -4 16 13 21 21 13 21 -2 0 -10 -8
-17 -17z"/>
<path d="M3160 2336 c0 -2 7 -7 16 -10 8 -3 12 -2 9 4 -6 10 -25 14 -25 6z"/>
<path d="M7668 1423 c7 -3 16 -2 19 1 4 3 -2 6 -13 5 -11 0 -14 -3 -6 -6z"/>
</g>
</svg>
