<svg xmlns="http://www.w3.org/2000/svg" viewBox="0 0 1086.79 536.25"><defs><style>.cls-1{font-size:24px;font-family:MyriadPro-Regular, Myriad Pro;}.cls-1,.cls-7{fill:#231f20;}.cls-2{fill:none;stroke:#231f20;stroke-miterlimit:10;stroke-width:2px;}.cls-3{letter-spacing:-0.01em;}.cls-4{letter-spacing:-0.01em;}.cls-5{letter-spacing:0em;}.cls-6{letter-spacing:-0.01em;}.cls-8{letter-spacing:0em;}.cls-9{letter-spacing:-0.05em;}.cls-10{letter-spacing:-0.09em;}.cls-11{letter-spacing:0.01em;}.cls-12{letter-spacing:0.02em;}.cls-13{letter-spacing:-0.09em;}</style></defs><title>Asset 1</title><g id="Layer_2" data-name="Layer 2"><g id="Layer_1-2" data-name="Layer 1"><text class="cls-1" transform="translate(58.92 20.09)">Rules</text><rect class="cls-2" x="165.39" y="45.63" width="109.34" height="35.57"/><rect class="cls-2" x="274.73" y="45.63" width="109.34" height="35.57"/><rect class="cls-2" x="384.07" y="45.63" width="109.34" height="35.57"/><rect class="cls-2" x="493.41" y="45.63" width="109.34" height="35.57"/><text class="cls-1" transform="translate(523.02 71.32)">NULL</text><rect class="cls-2" x="26.97" y="193.2" width="173.31" height="35.56"/><text class="cls-1" transform="translate(26.97 185.71)">rule_t</text><text class="cls-1" transform="translate(41.64 217.4)">ta<tspan class="cls-3" x="19.51" y="0">r</tspan><tspan x="27.17" y="0">get</tspan></text><rect class="cls-2" x="26.97" y="228.76" width="173.31" height="35.56"/><text class="cls-1" transform="translate(41.64 253.91)">dependencies</text><text class="cls-1" transform="translate(41.64 288.95)"><tspan class="cls-4">c</tspan><tspan x="10.61" y="0">ommands</tspan></text><rect class="cls-2" x="26.97" y="264.32" width="173.31" height="35.56"/><rect class="cls-2" x="26.97" y="299.88" width="173.31" height="35.56"/><text class="cls-1" transform="translate(41.64 322.88)">st<tspan class="cls-5" x="17.45" y="0">a</tspan><tspan class="cls-6" x="28.92" y="0">t</tspan><tspan x="36.72" y="0">e = 0</tspan></text><rect class="cls-2" x="375.39" y="192.38" width="173.31" height="35.56"/><text class="cls-1" transform="translate(375.39 184.88)">rule_t</text><text class="cls-1" transform="translate(390.07 216.57)">ta<tspan class="cls-3" x="19.51" y="0">r</tspan><tspan x="27.17" y="0">get</tspan></text><rect class="cls-2" x="375.39" y="227.94" width="173.31" height="35.56"/><text class="cls-1" transform="translate(390.07 253.08)">dependencies</text><text class="cls-1" transform="translate(390.07 288.12)"><tspan class="cls-4">c</tspan><tspan x="10.61" y="0">ommands</tspan></text><rect class="cls-2" x="375.39" y="263.5" width="173.31" height="35.56"/><rect class="cls-2" x="375.39" y="299.06" width="173.31" height="35.56"/><text class="cls-1" transform="translate(390.07 322.06)">st<tspan class="cls-5" x="17.45" y="0">a</tspan><tspan class="cls-6" x="28.92" y="0">t</tspan><tspan x="36.72" y="0">e = 0</tspan></text><rect class="cls-2" x="723.81" y="193.29" width="173.31" height="35.56"/><text class="cls-1" transform="translate(723.81 185.79)">rule_t</text><text class="cls-1" transform="translate(738.49 217.48)">ta<tspan class="cls-3" x="19.51" y="0">r</tspan><tspan x="27.17" y="0">get</tspan></text><rect class="cls-2" x="723.81" y="228.85" width="173.31" height="35.56"/><text class="cls-1" transform="translate(738.49 254)">dependencies</text><text class="cls-1" transform="translate(738.49 289.03)"><tspan class="cls-4">c</tspan><tspan x="10.61" y="0">ommands</tspan></text><rect class="cls-2" x="723.81" y="264.41" width="173.31" height="35.56"/><rect class="cls-2" x="723.81" y="299.97" width="173.31" height="35.56"/><text class="cls-1" transform="translate(738.49 322.97)">st<tspan class="cls-5" x="17.45" y="0">a</tspan><tspan class="cls-6" x="28.92" y="0">t</tspan><tspan x="36.72" y="0">e = 0</tspan></text><rect class="cls-2" x="261.88" y="403.78" width="22.86" height="22.7"/><rect class="cls-2" x="307.61" y="403.78" width="22.86" height="22.7"/><line class="cls-2" x1="307.61" y1="403.78" x2="330.47" y2="426.48"/><line class="cls-2" x1="307.61" y1="426.48" x2="330.47" y2="403.78"/><rect class="cls-2" x="284.38" y="459.6" width="22.86" height="22.7"/><line class="cls-2" x1="284.38" y1="459.6" x2="307.24" y2="482.3"/><line class="cls-2" x1="284.38" y1="482.3" x2="307.24" y2="459.6"/><rect class="cls-2" x="598.18" y="401.78" width="22.86" height="22.7"/><rect class="cls-2" x="621.07" y="401.78" width="22.86" height="22.7"/><line class="cls-2" x1="621.07" y1="401.78" x2="643.93" y2="424.48"/><line class="cls-2" x1="621.07" y1="424.48" x2="643.93" y2="401.78"/><rect class="cls-2" x="599.18" y="461.04" width="22.86" height="22.7"/><rect class="cls-2" x="622.04" y="461.04" width="22.86" height="22.7"/><line class="cls-2" x1="622.04" y1="461.04" x2="644.9" y2="483.74"/><line class="cls-2" x1="622.04" y1="483.74" x2="644.9" y2="461.04"/><rect class="cls-2" x="956.21" y="399.87" width="22.86" height="22.7"/><line class="cls-2" x1="956.21" y1="399.87" x2="979.07" y2="422.57"/><line class="cls-2" x1="956.21" y1="422.57" x2="979.07" y2="399.87"/><rect class="cls-2" x="284.75" y="403.78" width="22.86" height="22.7"/><rect class="cls-2" x="262.25" y="459.6" width="22.86" height="22.7"/><path class="cls-2" d="M300.69,519.6"/><rect class="cls-2" x="956.21" y="457.62" width="22.86" height="22.7"/><rect class="cls-2" x="979.07" y="457.62" width="22.86" height="22.7"/><line class="cls-2" x1="979.07" y1="457.62" x2="1001.93" y2="480.32"/><line class="cls-2" x1="979.07" y1="480.32" x2="1001.93" y2="457.62"/><polyline class="cls-2" points="296.18 415.13 296.18 359.62 630.5 358.85 630.5 204.56 714.8 204.56"/><polygon class="cls-7" points="710.86 209.75 713.07 204.56 710.86 199.38 723.15 204.56 710.86 209.75"/><text class="cls-1" transform="translate(306.24 527.24)">“<tspan class="cls-8" x="8.5" y="0">E</tspan><tspan x="20.21" y="0">cho </tspan><tspan class="cls-9" x="62.54" y="0">A</tspan><tspan class="cls-10" x="76.06" y="0">”</tspan></text><text class="cls-1" transform="translate(643.91 530.25)">“<tspan class="cls-8" x="8.5" y="0">E</tspan><tspan x="20.21" y="0">cho </tspan><tspan class="cls-11" x="62.54" y="0">B</tspan><tspan class="cls-10" x="75.74" y="0">”</tspan></text><text class="cls-1" transform="translate(1001.93 527.24)">“<tspan class="cls-8" x="8.5" y="0">E</tspan><tspan x="20.21" y="0">cho </tspan><tspan class="cls-12" x="62.54" y="0">C</tspan><tspan class="cls-13" x="76.92" y="0">”</tspan></text><polyline class="cls-2" points="273.68 470.95 273.68 520.35 296.23 520.35"/><polygon class="cls-7" points="292.3 525.53 294.5 520.35 292.3 515.16 304.59 520.35 292.3 525.53"/><polyline class="cls-2" points="610.61 473.39 610.61 522.79 633.16 522.79"/><polygon class="cls-7" points="629.23 527.97 631.43 522.79 629.23 517.6 641.52 522.79 629.23 527.97"/><polyline class="cls-2" points="967.64 469.28 967.64 518.67 990.19 518.67"/><polygon class="cls-7" points="986.26 523.86 988.46 518.67 986.26 513.49 998.55 518.67 986.26 523.86"/><path class="cls-2" d="M225.89,347.78"/><polyline class="cls-2" points="252.96 412.95 238.56 412.63 238.56 245.73 200.28 245.63"/><polygon class="cls-7" points="249.14 407.68 251.23 412.91 248.91 418.04 261.31 413.13 249.14 407.68"/><polyline class="cls-2" points="273.25 414.37 273.31 211.27 366.98 211.08"/><polygon class="cls-7" points="363.06 216.27 365.25 211.08 363.03 205.9 375.33 211.06 363.06 216.27"/><polyline class="cls-2" points="609.61 413.13 609.86 383.49 671.82 383.66 671.82 221.59 714.33 221.59"/><polygon class="cls-7" points="710.39 226.77 712.6 221.59 710.39 216.4 722.68 221.59 710.39 226.77"/><polyline class="cls-2" points="548.7 245.72 576.09 245.72 576.06 414.37 588.79 414.37"/><polygon class="cls-7" points="584.86 419.56 587.06 414.37 584.86 409.19 597.15 414.37 584.86 419.56"/><polyline class="cls-2" points="200.28 282.1 217.56 282.1 217.56 470.95 252.96 470.95"/><polygon class="cls-7" points="249.02 476.13 251.23 470.95 249.02 465.76 261.31 470.95 249.02 476.13"/><polyline class="cls-2" points="548.7 277.27 559.91 277.27 559.91 472.58 590.82 472.58"/><polygon class="cls-7" points="586.89 477.76 589.09 472.58 586.89 467.39 599.18 472.58 586.89 477.76"/><polyline class="cls-2" points="898.25 246.63 935.72 247.16 935.36 408.84 947.85 409.11"/><polygon class="cls-7" points="943.8 414.21 946.12 409.07 944.03 403.84 956.21 409.3 943.8 414.21"/><polyline class="cls-2" points="897.12 282.19 916.29 282.19 916.29 469.08 947.85 468.45"/><polygon class="cls-7" points="944.02 473.71 946.12 468.49 943.82 463.35 956.21 468.29 944.02 473.71"/><polyline class="cls-2" points="329.4 63.41 329.79 179.33 364.86 179.33"/><polygon class="cls-7" points="360.93 184.51 363.13 179.33 360.93 174.14 373.22 179.33 360.93 184.51"/><polyline class="cls-2" points="220.06 63.41 220.06 124.26 1 124.26 1 179.33 16 179.33"/><polygon class="cls-7" points="12.07 184.51 14.27 179.33 12.07 174.14 24.36 179.33 12.07 184.51"/><polyline class="cls-2" points="443.15 63.41 443.15 123.39 684.66 123.39 684.66 179.44 714.33 179.44"/><polygon class="cls-7" points="710.39 184.62 712.6 179.44 710.39 174.25 722.68 179.44 710.39 184.62"/><polyline class="cls-2" points="81.26 25.4 81.26 63.41 157.03 63.41"/><polygon class="cls-7" points="153.1 68.6 155.3 63.41 153.1 58.23 165.39 63.41 153.1 68.6"/></g></g></svg>